0
SECTION
2
HEADER
9
$INSUNITS
70
4
9
$ACADVER
1
AC1014
9
$HANDSEED
5
FFFF
0
ENDSEC
0
SECTION
2
TABLES
0
TABLE
2
VPORT
5
8
100
AcDbSymbolTable
0
ENDTAB
0
TABLE
2
LTYPE
5
5
100
AcDbSymbolTable
0
LTYPE
5
14
100
AcDbSymbolTableRecord
100
AcDbLinetypeTableRecord
2
BYBLOCK
70
0
0
LTYPE
5
15
100
AcDbSymbolTableRecord
100
AcDbLinetypeTableRecord
2
BYLAYER
70
0
0
ENDTAB
0
TABLE
2
LAYER
5
2
100
AcDbSymbolTable
70
2
0
LAYER
5
50
100
AcDbSymbolTableRecord
100
AcDbLayerTableRecord
2
0
70
0
6
CONTINUOUS
0
ENDTAB
0
TABLE
2
STYLE
5
3
100
AcDbSymbolTable
70
1
0
STYLE
5
11
100
AcDbSymbolTableRecord
100
AcDbTextStyleTableRecord
2
STANDARD
70
0
0
ENDTAB
0
TABLE
2
VIEW
5
6
100
AcDbSymbolTable
70
0
0
ENDTAB
0
TABLE
2
UCS
5
7
100
AcDbSymbolTable
70
0
0
ENDTAB
0
TABLE
2
APPID
5
9
100
AcDbSymbolTable
70
2
0
APPID
5
12
100
AcDbSymbolTableRecord
100
AcDbRegAppTableRecord
2
ACAD
70
0
0
ENDTAB
0
TABLE
2
DIMSTYLE
5
A
100
AcDbSymbolTable
70
1
0
ENDTAB
0
TABLE
2
BLOCK_RECORD
5
1
100
AcDbSymbolTable
70
1
0
BLOCK_RECORD
5
1F
100
AcDbSymbolTableRecord
100
AcDbBlockTableRecord
2
*MODEL_SPACE
0
BLOCK_RECORD
5
1B
100
AcDbSymbolTableRecord
100
AcDbBlockTableRecord
2
*PAPER_SPACE
0
ENDTAB
0
ENDSEC
0
SECTION
2
BLOCKS
0
BLOCK
5
20
100
AcDbEntity
100
AcDbBlockBegin
2
*MODEL_SPACE
0
ENDBLK
5
21
100
AcDbEntity
100
AcDbBlockEnd
0
BLOCK
5
1C
100
AcDbEntity
100
AcDbBlockBegin
2
*PAPER_SPACE
0
ENDBLK
5
1D
100
AcDbEntity
100
AcDbBlockEnd
0
ENDSEC
0
SECTION
2
ENTITIES
0
ARC
5
100
100
AcDbEntity
8
0
100
AcDbCircle
10
395.8487743208733
20
658.93508178714819
30
-3.5527136788005009e-13
40
4.0000000000000568
210
0
220
-0
230
1
100
AcDbArc
50
90
51
179.99999879258175
0
LINE
5
101
100
AcDbEntity
8
0
100
AcDbLine
10
391.8487743208733
20
658.93508188099668
30
-3.6415315207705135e-13
11
391.84876794268928
21
387.08484287744216
31
-1.5099033134902129e-13
0
ARC
5
102
100
AcDbEntity
8
0
100
AcDbCircle
10
393.84876794269007
20
387.08484283051797
30
-6.3060667798708891e-13
40
2.0000000000007394
210
2.3980817331894506e-13
220
-5.6263998918239895e-21
230
1
100
AcDbArc
50
179.99999879258175
51
269.99999865571948
0
LINE
5
103
100
AcDbEntity
8
0
100
AcDbLine
10
393.84876789576583
20
385.08484283051791
30
-6.3060667798708891e-13
11
396.84876789576458
21
385.08484289473313
31
-5.3290705182007514e-14
0
LINE
5
104
100
AcDbEntity
8
0
100
AcDbLine
10
396.84876789576458
20
385.08484289473313
30
-5.3290705182007514e-14
11
400.0000239092173
21
385.0000218654489
31
-1.0379382331393572e-06
0
ARC
5
105
100
AcDbEntity
8
0
100
AcDbCircle
10
393.00002395392085
20
377.85859339308774
30
-3.801403636316536e-12
40
10
210
-2.3980817331903381e-14
220
0
230
1
100
AcDbArc
50
0
51
45.572996357852006
0
LINE
5
106
100
AcDbEntity
8
0
100
AcDbLine
10
403.00002395392085
20
377.85859339308774
30
-3.5615954629975022e-12
11
403.00002395392085
21
342.93507063751571
31
8.8817841970012523e-15
0
ARC
5
107
100
AcDbEntity
8
0
100
AcDbCircle
10
405.00002395392085
20
342.93507063751571
30
6.5324194384066128e-10
40
2.0000000000000284
210
1.6209256159527055e-12
220
0
230
1
100
AcDbArc
50
180
51
270
0
LINE
5
108
100
AcDbEntity
8
0
100
AcDbLine
10
405.00002395392085
20
340.93507063751565
30
-3.2951419370874646e-12
11
444.368772517575
21
340.93507063751565
31
8.8817841970012523e-15
0
ARC
5
109
100
AcDbEntity
8
0
100
AcDbCircle
10
444.368772517575
20
338.93507063751571
30
0
40
1.9999999999999716
210
0
220
-0
230
1
100
AcDbArc
50
14.477512185921546
51
90
0
ARC
5
110
100
AcDbEntity
8
0
100
AcDbCircle
10
448.2417558637826
20
339.93507063751514
30
8.8817841970012523e-15
40
2.0000000000000577
210
-4.2998752849492802e-15
220
-1.1102230246245558e-15
230
1
100
AcDbArc
50
194.47751218592111
51
270
0
LINE
5
111
100
AcDbEntity
8
0
100
AcDbLine
10
448.2417558637826
20
337.93507063751514
30
8.8817841970012523e-15
11
542.84848449347305
21
337.9350706375152
31
0
0
ARC
5
112
100
AcDbEntity
8
0
100
AcDbCircle
10
542.84848449347305
20
339.93507063751514
30
-4.4408920985006262e-14
40
1.9999999999999574
210
0
220
2.2204460492503604e-14
230
1
100
AcDbArc
50
-90
51
0
0
LINE
5
113
100
AcDbEntity
8
0
100
AcDbLine
10
544.84848449347305
20
339.93507063751514
30
-4.4408920985006262e-14
11
544.84848449347419
21
424.93508178762227
31
8.8817841970012523e-15
0
ARC
5
114
100
AcDbEntity
8
0
100
AcDbCircle
10
542.8484844934743
20
424.93508178762227
30
-1.7763568394002505e-14
40
1.9999999999999574
210
-1.3322676295502162e-14
220
0
230
1
100
AcDbArc
50
0
51
90
0
LINE
5
115
100
AcDbEntity
8
0
100
AcDbLine
10
542.8484844934743
20
426.93508178762227
30
-1.7763568394002505e-14
11
494.84848449404251
21
426.93508178762227
31
8.8817841970012523e-15
0
ARC
5
116
100
AcDbEntity
8
0
100
AcDbCircle
10
494.84848449404251
20
428.93508178762232
30
-2.6645352591003757e-14
40
1.9999999999999574
210
0
220
0
230
1
100
AcDbArc
50
180
51
270
0
LINE
5
117
100
AcDbEntity
8
0
100
AcDbLine
10
492.84848449404257
20
428.93508178762232
30
-2.6645352591003757e-14
11
492.84848449404257
21
439.93508178762227
31
1.7763568394002505e-14
0
ARC
5
118
100
AcDbEntity
8
0
100
AcDbCircle
10
494.84848449404251
20
439.93508178762227
30
-2.6645352591003757e-14
40
2.0000000000000284
210
0
220
-4.4408920985005631e-15
230
1
100
AcDbArc
50
90
51
180
0
LINE
5
119
100
AcDbEntity
8
0
100
AcDbLine
10
494.84848449404251
20
441.93508178762227
30
-1.7763568394002505e-14
11
542.84848449347453
21
441.93508178762227
31
8.8817841970012523e-15
0
ARC
5
120
100
AcDbEntity
8
0
100
AcDbCircle
10
542.84848449347453
20
443.93508178762227
30
-8.8817841970012523e-15
40
1.9999999999999574
210
0
220
8.8817841970014417e-15
230
1
100
AcDbArc
50
-90
51
0
0
LINE
5
121
100
AcDbEntity
8
0
100
AcDbLine
10
544.84848449347453
20
443.93508178762227
30
-8.8817841970012523e-15
11
544.84848449347487
21
468.93508178762158
31
1.7763568394002505e-14
0
ARC
5
122
100
AcDbEntity
8
0
100
AcDbCircle
10
542.84848449347487
20
468.93508178762158
30
0
40
1.9999999999999574
210
-8.8817841970014417e-15
220
0
230
1
100
AcDbArc
50
0
51
90
0
LINE
5
123
100
AcDbEntity
8
0
100
AcDbLine
10
542.84848449347487
20
470.93508178762164
30
0
11
505.84848449403989
21
470.93508178762164
31
1.7763568394002505e-14
0
ARC
5
124
100
AcDbEntity
8
0
100
AcDbCircle
10
505.84848449403989
20
472.9350817876217
30
-1.7763568394002505e-14
40
2.0000000000000284
210
0
220
0
230
1
100
AcDbArc
50
180
51
270
0
LINE
5
125
100
AcDbEntity
8
0
100
AcDbLine
10
503.84848449403989
20
472.9350817876217
30
-1.7763568394002505e-14
11
503.84848449403989
21
556.93508178762261
31
2.6645352591003757e-14
0
ARC
5
126
100
AcDbEntity
8
0
100
AcDbCircle
10
501.84848449403989
20
556.93508178762261
30
8.8817841970012523e-15
40
2.0000000000000284
210
-8.8817841970011261e-15
220
0
230
1
100
AcDbArc
50
0
51
90
0
LINE
5
127
100
AcDbEntity
8
0
100
AcDbLine
10
501.84848449403989
20
558.93508178762261
30
8.8817841970012523e-15
11
499.84848449404132
21
558.93508178762249
31
-1.7763568394002505e-14
0
ARC
5
128
100
AcDbEntity
8
0
100
AcDbCircle
10
499.84848449404132
20
560.93508178762261
30
4.4408920985006262e-14
40
2.0000000000000284
210
0
220
0
230
1
100
AcDbArc
50
180
51
270
0
LINE
5
129
100
AcDbEntity
8
0
100
AcDbLine
10
497.84848449404132
20
560.93508178762261
30
4.4408920985006262e-14
11
497.84848449404257
21
566.9350817876217
31
2.6645352591003757e-14
0
ARC
5
130
100
AcDbEntity
8
0
100
AcDbCircle
10
499.84848449404132
20
566.9350817876217
30
5.3290705182007514e-14
40
2.0000000000000284
210
0
220
-0
230
1
100
AcDbArc
50
90
51
180
0
LINE
5
131
100
AcDbEntity
8
0
100
AcDbLine
10
499.84848449404132
20
568.93508178762181
30
5.3290705182007514e-14
11
542.84848449347635
21
568.93508178762181
31
2.6645352591003757e-14
0
ARC
5
132
100
AcDbEntity
8
0
100
AcDbCircle
10
542.84848449347635
20
570.93508178762181
30
3.5527136788005009e-14
40
2.0000000000000284
210
0
220
-4.4408920985005631e-15
230
1
100
AcDbArc
50
270
51
360
0
LINE
5
133
100
AcDbEntity
8
0
100
AcDbLine
10
544.84848449347635
20
570.9350817876217
30
3.5527136788005009e-14
11
544.8484844934776
21
663.9350817876209
31
4.4408920985006262e-14
0
ARC
5
134
100
AcDbEntity
8
0
100
AcDbCircle
10
542.8484844934776
20
663.9350817876209
30
7.1054273576010019e-14
40
2.0000000000000284
210
1.3322676295501689e-14
220
0
230
1
100
AcDbArc
50
0
51
90
0
LINE
5
135
100
AcDbEntity
8
0
100
AcDbLine
10
542.8484844934776
20
665.9350817876209
30
7.1054273576010019e-14
11
448.3687725175763
21
665.93508178762113
31
5.3290705182007514e-14
0
ARC
5
136
100
AcDbEntity
8
0
100
AcDbCircle
10
448.3687725175763
20
663.9350817876209
30
1.0658141036401503e-13
40
2.0000000000001705
210
0
220
2.6645352591001485e-14
230
1
100
AcDbArc
50
90
51
165.52248782107372
0
ARC
5
137
100
AcDbEntity
8
0
100
AcDbCircle
10
444.4957891712466
20
664.93508178714762
30
5.3290705182007514e-14
40
1.9999999999998863
210
0
220
0
230
1
100
AcDbArc
50
270
51
345.52248782107011
0
LINE
5
138
100
AcDbEntity
8
0
100
AcDbLine
10
444.4957891712466
20
662.93508178714774
30
5.3290705182007514e-14
11
398.84877936851234
21
662.93508178714774
31
5.3290705182007514e-14
0
LINE
5
139
100
AcDbEntity
8
0
100
AcDbLine
10
398.84877936851234
20
662.93508178714774
30
5.3290705182007514e-14
11
396.84877441464505
21
662.93508178714831
31
-1.7763568394002505e-14
0
LINE
5
140
100
AcDbEntity
8
0
100
AcDbLine
10
396.84877441464505
20
662.93508178714831
30
-1.7763568394002505e-14
11
395.8487743208733
21
662.93508178714831
31
-3.5527136788005009e-13
0
CIRCLE
5
141
100
AcDbEntity
8
0
100
AcDbCircle
10
-534.84848449347453
20
390.93507063751582
30
-4.336766632689323e-13
40
2.7000000000000313
210
-9.436895709313734e-16
220
-3.5032461608120388e-46
230
-1
0
CIRCLE
5
142
100
AcDbEntity
8
0
100
AcDbCircle
10
-534.84848449347919
20
612.93508178762136
30
-2.7274198592108456e-12
40
2.6999999999999602
210
-5.6806411426653896e-15
220
-4.5542200090556505e-45
230
-1
0
ENDSEC
0
SECTION
2
OBJECTS
0
DICTIONARY
5
C
100
AcDbDictionary
3
ACAD_GROUP
350
D
3
ACAD_MLINESTYLE
350
17
0
DICTIONARY
5
D
100
AcDbDictionary
0
DICTIONARY
5
1A
330
C
100
AcDbDictionary
0
DICTIONARY
5
17
100
AcDbDictionary
0
ENDSEC
0
EOF
