0
SECTION
2
HEADER
9
$INSUNITS
70
4
9
$ACADVER
1
AC1014
9
$HANDSEED
5
FFFF
0
ENDSEC
0
SECTION
2
TABLES
0
TABLE
2
VPORT
5
8
100
AcDbSymbolTable
0
ENDTAB
0
TABLE
2
LTYPE
5
5
100
AcDbSymbolTable
0
LTYPE
5
14
100
AcDbSymbolTableRecord
100
AcDbLinetypeTableRecord
2
BYBLOCK
70
0
0
LTYPE
5
15
100
AcDbSymbolTableRecord
100
AcDbLinetypeTableRecord
2
BYLAYER
70
0
0
ENDTAB
0
TABLE
2
LAYER
5
2
100
AcDbSymbolTable
70
2
0
LAYER
5
50
100
AcDbSymbolTableRecord
100
AcDbLayerTableRecord
2
0
70
0
6
CONTINUOUS
0
ENDTAB
0
TABLE
2
STYLE
5
3
100
AcDbSymbolTable
70
1
0
STYLE
5
11
100
AcDbSymbolTableRecord
100
AcDbTextStyleTableRecord
2
STANDARD
70
0
0
ENDTAB
0
TABLE
2
VIEW
5
6
100
AcDbSymbolTable
70
0
0
ENDTAB
0
TABLE
2
UCS
5
7
100
AcDbSymbolTable
70
0
0
ENDTAB
0
TABLE
2
APPID
5
9
100
AcDbSymbolTable
70
2
0
APPID
5
12
100
AcDbSymbolTableRecord
100
AcDbRegAppTableRecord
2
ACAD
70
0
0
ENDTAB
0
TABLE
2
DIMSTYLE
5
A
100
AcDbSymbolTable
70
1
0
ENDTAB
0
TABLE
2
BLOCK_RECORD
5
1
100
AcDbSymbolTable
70
1
0
BLOCK_RECORD
5
1F
100
AcDbSymbolTableRecord
100
AcDbBlockTableRecord
2
*MODEL_SPACE
0
BLOCK_RECORD
5
1B
100
AcDbSymbolTableRecord
100
AcDbBlockTableRecord
2
*PAPER_SPACE
0
ENDTAB
0
ENDSEC
0
SECTION
2
BLOCKS
0
BLOCK
5
20
100
AcDbEntity
100
AcDbBlockBegin
2
*MODEL_SPACE
0
ENDBLK
5
21
100
AcDbEntity
100
AcDbBlockEnd
0
BLOCK
5
1C
100
AcDbEntity
100
AcDbBlockBegin
2
*PAPER_SPACE
0
ENDBLK
5
1D
100
AcDbEntity
100
AcDbBlockEnd
0
ENDSEC
0
SECTION
2
ENTITIES
0
ARC
5
100
100
AcDbEntity
8
0
100
AcDbCircle
10
363.84820500488377
20
657.93508594563934
30
4.9737991503207013e-13
40
4.0000000000000577
210
0
220
0
230
1
100
AcDbArc
50
-1.2074182490616497e-06
51
89.999997311470722
0
LINE
5
101
100
AcDbEntity
8
0
100
AcDbLine
10
363.84820519257852
20
661.93508594563923
30
5.2402526762307389e-13
11
362.84820982249784
21
661.93508599256279
31
-1.936228954946273e-12
0
LINE
5
102
100
AcDbEntity
8
0
100
AcDbLine
10
362.84820982249784
20
661.93508599256279
30
-1.936228954946273e-12
11
360.84820486862543
21
661.93508603948749
31
1.7763568394002505e-14
0
LINE
5
103
100
AcDbEntity
8
0
100
AcDbLine
10
360.84820486862543
20
661.93508603948749
30
1.7763568394002505e-14
11
315.201195065891
21
661.93508822833508
31
-3.5527136788005009e-14
0
ARC
5
104
100
AcDbEntity
8
0
100
AcDbCircle
10
315.2011951597384
20
663.93508822833496
30
-3.5527136788005009e-14
40
1.9999999999999827
210
-4.2998753371807161e-15
220
-1.1102228223337243e-15
230
1
100
AcDbArc
50
194.47750949039897
51
269.99999731146988
0
ARC
5
105
100
AcDbEntity
8
0
100
AcDbCircle
10
311.32821176648508
20
662.9350884105429
30
-9.7699626167013776e-14
40
2.0000000000000511
210
-2.5799252023083474e-14
220
-6.6613369340018891e-15
230
1
100
AcDbArc
50
14.477509490399017
51
89.999997311471532
0
LINE
5
106
100
AcDbEntity
8
0
100
AcDbLine
10
311.32821186033243
20
664.9350884105429
30
-9.7699626167013776e-14
11
216.84849988443079
21
664.93509284387915
31
-1.5099033134902129e-13
0
ARC
5
107
100
AcDbEntity
8
0
100
AcDbCircle
10
216.84849979058342
20
662.93509284387915
30
-1.7763568394002505e-13
40
2.0000000000000306
210
-6.2514915376310979e-22
220
-1.3322676295501661e-14
230
1
100
AcDbArc
50
89.999997311470722
51
179.9999973001307
0
LINE
5
108
100
AcDbEntity
8
0
100
AcDbLine
10
214.84849979058345
20
662.93509293772649
30
-1.7763568394002505e-13
11
214.84849542668212
21
569.93509293772775
31
-1.1546319456101628e-13
0
ARC
5
109
100
AcDbEntity
8
0
100
AcDbCircle
10
216.84849542668212
20
569.9350928438804
30
-1.3322676295501878e-13
40
1.9999999999999951
210
8.8817841970012649e-15
220
-4.1676594473657366e-22
230
1
100
AcDbArc
50
179.9999973001307
51
269.99999731147153
0
LINE
5
110
100
AcDbEntity
8
0
100
AcDbLine
10
216.84849533283477
20
567.9350928438804
30
-1.3322676295501878e-13
11
259.84849533226986
21
567.93509082616197
31
-6.2172489379008766e-14
0
ARC
5
111
100
AcDbEntity
8
0
100
AcDbCircle
10
259.84849523842252
20
565.93509082616197
30
-9.7699626167013776e-14
40
2.0000000000000306
210
-4.4408920985005536e-15
220
2.0838297236827942e-22
230
1
100
AcDbArc
50
-2.699869310233951e-06
51
89.999997311471532
0
LINE
5
112
100
AcDbEntity
8
0
100
AcDbLine
10
261.84849523842252
20
565.93509073231462
30
-8.8817841970012523e-14
11
261.84849495688042
21
559.93509073231542
31
-5.3290705182007514e-14
0
ARC
5
113
100
AcDbEntity
8
0
100
AcDbCircle
10
259.84849495688036
20
559.93509082616288
30
-8.8817841970012523e-14
40
2.0000000000000306
210
0
220
0
230
1
100
AcDbArc
50
269.99999731147153
51
359.9999973001307
0
LINE
5
114
100
AcDbEntity
8
0
100
AcDbLine
10
259.84849486303301
20
557.93509082616288
30
-8.8817841970012523e-14
11
257.84849486303443
21
557.93509092001034
31
-1.021405182655144e-12
0
ARC
5
115
100
AcDbEntity
8
0
100
AcDbCircle
10
257.84849476918703
20
555.93509092001023
30
-5.3290705182007514e-14
40
2.0000000000001017
210
2.2713752586724708e-20
220
4.8405723873654311e-13
230
1
100
AcDbArc
50
89.999997311469897
51
179.9999973001307
0
LINE
5
116
100
AcDbEntity
8
0
100
AcDbLine
10
255.84849476918706
20
555.93509101385757
30
-6.2172489379008766e-14
11
255.8484908275976
21
471.93509101385587
31
-2.6645352591003757e-14
0
ARC
5
117
100
AcDbEntity
8
0
100
AcDbCircle
10
253.8484908275976
20
471.93509110770322
30
8.8817841970012523e-15
40
1.9999999999999596
210
0
220
0
230
1
100
AcDbArc
50
269.99999731147074
51
359.9999973001307
0
LINE
5
118
100
AcDbEntity
8
0
100
AcDbLine
10
253.84849073375022
20
469.93509110770327
30
8.8817841970012523e-15
11
216.84849073431513
21
469.93509284387954
31
-7.1054273576010019e-14
0
ARC
5
119
100
AcDbEntity
8
0
100
AcDbCircle
10
216.84849064046773
20
467.93509284387949
30
-5.3290705182007514e-14
40
2.0000000000000306
210
4.1676626028092094e-22
220
8.8817841970011072e-15
230
1
100
AcDbArc
50
89.999997311469897
51
179.9999973001307
0
LINE
5
120
100
AcDbEntity
8
0
100
AcDbLine
10
214.84849064046779
20
467.93509293772684
30
-6.2172489379008766e-14
11
214.848489467376
21
442.9350929377274
31
-7.1054273576010019e-14
0
ARC
5
121
100
AcDbEntity
8
0
100
AcDbCircle
10
216.84848946737603
20
442.93509284388017
30
-4.4408920985006262e-14
40
2.0000000000000306
210
-1.3322676295501661e-14
220
6.2514844378829509e-22
230
1
100
AcDbArc
50
179.9999973001307
51
269.99999731146909
0
LINE
5
122
100
AcDbEntity
8
0
100
AcDbLine
10
216.84848937352859
20
440.93509284388011
30
-4.4408920985006262e-14
11
264.84848937296073
21
440.93509059154326
31
-8.8817841970012523e-15
0
ARC
5
123
100
AcDbEntity
8
0
100
AcDbCircle
10
264.84848927911338
20
438.93509059154331
30
3.5527136788005009e-14
40
2.0000000000000306
210
0
220
0
230
1
100
AcDbArc
50
-2.699869310233951e-06
51
89.999997311471532
0
LINE
5
124
100
AcDbEntity
8
0
100
AcDbLine
10
266.84848927911338
20
438.93509049769591
30
3.5527136788005009e-14
11
266.84848876295285
21
427.93509049769597
31
0
0
ARC
5
125
100
AcDbEntity
8
0
100
AcDbCircle
10
264.84848876295291
20
427.93509059154331
30
3.5527136788005009e-14
40
1.9999999999999596
210
0
220
0
230
1
100
AcDbArc
50
269.99999731146823
51
359.9999973001307
0
LINE
5
126
100
AcDbEntity
8
0
100
AcDbLine
10
264.84848866910545
20
425.93509059154337
30
3.5527136788005009e-14
11
216.84848866967366
21
425.93509284388017
31
-5.3290705182007514e-14
0
ARC
5
127
100
AcDbEntity
8
0
100
AcDbCircle
10
216.84848857582631
20
423.93509284388017
30
-3.5527136788005009e-14
40
2.0000000000000306
210
4.1676594473655885e-22
220
8.8817841970011072e-15
230
1
100
AcDbArc
50
89.999997311471532
51
179.9999973001307
0
LINE
5
128
100
AcDbEntity
8
0
100
AcDbLine
10
214.84848857582625
20
423.93509293772752
30
-3.5527136788005009e-14
11
214.84848458731378
21
338.93508178762028
31
-2.6645352591003757e-14
0
ARC
5
129
100
AcDbEntity
8
0
100
AcDbCircle
10
216.84848458731381
20
338.93508169377293
30
1.7763568394002505e-14
40
2.0000000000000306
210
-2.2204460492502765e-14
220
1.0419148618413971e-21
230
1
100
AcDbArc
50
179.9999973001307
51
269.99999731146988
0
LINE
5
130
100
AcDbEntity
8
0
100
AcDbLine
10
216.8484844934664
20
336.93508169377299
30
1.7763568394002505e-14
11
311.45521312315714
21
336.93507725447665
31
8.8817841970012523e-14
0
ARC
5
131
100
AcDbEntity
8
0
100
AcDbCircle
10
311.45521321700454
20
338.93507725447671
30
8.8817841970012523e-14
40
2.0000000000000306
210
0
220
0
230
1
100
AcDbArc
50
269.99999731146988
51
345.52248512554763
0
ARC
5
132
100
AcDbEntity
8
0
100
AcDbCircle
10
315.32819651628841
20
337.93507707274262
30
9.7699626167013776e-14
40
1.9999999999999596
210
0
220
-0
230
1
100
AcDbArc
50
89.999997311469897
51
165.52248512555076
0
LINE
5
133
100
AcDbEntity
8
0
100
AcDbLine
10
315.32819661013582
20
339.93507707274256
30
9.7699626167013776e-14
11
354.82819651629097
21
339.9350752192571
31
1.3322676295501878e-13
0
ARC
5
134
100
AcDbEntity
8
0
100
AcDbCircle
10
354.82819661013832
20
341.9350752192571
30
-3.5527136788005009e-14
40
2.0000000000000306
210
3.9592764749973093e-21
220
8.4376949871510521e-14
230
1
100
AcDbArc
50
269.99999731147153
51
360
0
LINE
5
135
100
AcDbEntity
8
0
100
AcDbLine
10
356.82819661013838
20
341.93507521925704
30
-4.4408920985006262e-14
11
356.82819661014037
21
376.82616698204117
31
-7.5495165674510645e-13
0
ARC
5
136
100
AcDbEntity
8
0
100
AcDbCircle
10
366.82819661013843
20
376.82616698204117
30
-1.7763568394002505e-14
40
10.000000000000089
210
-3.5349483623681317e-16
220
8.1480200415493964e-16
230
1
100
AcDbArc
50
113.45319592725467
51
180
0
LINE
5
137
100
AcDbEntity
8
0
100
AcDbLine
10
362.8481985782546
20
386.00002198777361
30
-2.6645352591003757e-14
11
365.84819862486108
21
386.00002180996728
31
1.3322676295501878e-13
0
ARC
5
138
100
AcDbEntity
8
0
100
AcDbCircle
10
365.84819867178419
20
388.00002181742377
30
8.2600593032111647e-13
40
2.0000000074565354
210
-8.1268374119241239e-21
220
-3.4638958239161568e-13
230
1
100
AcDbArc
50
269.99999865575205
51
359.99999879258172
0
LINE
5
139
100
AcDbEntity
8
0
100
AcDbLine
10
367.84819867178419
20
388.00002177050067
30
8.3488771451811772e-13
11
367.84820500488377
21
657.93508585179302
31
4.9737991503207013e-13
0
CIRCLE
5
140
100
AcDbEntity
8
0
100
AcDbCircle
10
224.84849739747398
20
611.93509246848987
30
2.2204460492503131e-13
40
2.6999999999999602
210
5.6806411426653911e-15
220
-2.6655661011555347e-22
230
1
0
CIRCLE
5
141
100
AcDbEntity
8
0
100
AcDbCircle
10
224.8484869804202
20
389.93508131838416
30
4.4408920985006262e-14
40
2.7000000000000313
210
9.4368957093137557e-16
220
-4.4281391256980791e-23
230
1
0
ENDSEC
0
SECTION
2
OBJECTS
0
DICTIONARY
5
C
100
AcDbDictionary
3
ACAD_GROUP
350
D
3
ACAD_MLINESTYLE
350
17
0
DICTIONARY
5
D
100
AcDbDictionary
0
DICTIONARY
5
1A
330
C
100
AcDbDictionary
0
DICTIONARY
5
17
100
AcDbDictionary
0
ENDSEC
0
EOF
