0
SECTION
2
HEADER
9
$INSUNITS
70
4
9
$ACADVER
1
AC1014
9
$HANDSEED
5
FFFF
0
ENDSEC
0
SECTION
2
TABLES
0
TABLE
2
VPORT
5
8
100
AcDbSymbolTable
0
ENDTAB
0
TABLE
2
LTYPE
5
5
100
AcDbSymbolTable
0
LTYPE
5
14
100
AcDbSymbolTableRecord
100
AcDbLinetypeTableRecord
2
BYBLOCK
70
0
0
LTYPE
5
15
100
AcDbSymbolTableRecord
100
AcDbLinetypeTableRecord
2
BYLAYER
70
0
0
ENDTAB
0
TABLE
2
LAYER
5
2
100
AcDbSymbolTable
70
2
0
LAYER
5
50
100
AcDbSymbolTableRecord
100
AcDbLayerTableRecord
2
0
70
0
6
CONTINUOUS
0
ENDTAB
0
TABLE
2
STYLE
5
3
100
AcDbSymbolTable
70
1
0
STYLE
5
11
100
AcDbSymbolTableRecord
100
AcDbTextStyleTableRecord
2
STANDARD
70
0
0
ENDTAB
0
TABLE
2
VIEW
5
6
100
AcDbSymbolTable
70
0
0
ENDTAB
0
TABLE
2
UCS
5
7
100
AcDbSymbolTable
70
0
0
ENDTAB
0
TABLE
2
APPID
5
9
100
AcDbSymbolTable
70
2
0
APPID
5
12
100
AcDbSymbolTableRecord
100
AcDbRegAppTableRecord
2
ACAD
70
0
0
ENDTAB
0
TABLE
2
DIMSTYLE
5
A
100
AcDbSymbolTable
70
1
0
ENDTAB
0
TABLE
2
BLOCK_RECORD
5
1
100
AcDbSymbolTable
70
1
0
BLOCK_RECORD
5
1F
100
AcDbSymbolTableRecord
100
AcDbBlockTableRecord
2
*MODEL_SPACE
0
BLOCK_RECORD
5
1B
100
AcDbSymbolTableRecord
100
AcDbBlockTableRecord
2
*PAPER_SPACE
0
ENDTAB
0
ENDSEC
0
SECTION
2
BLOCKS
0
BLOCK
5
20
100
AcDbEntity
100
AcDbBlockBegin
2
*MODEL_SPACE
0
ENDBLK
5
21
100
AcDbEntity
100
AcDbBlockEnd
0
BLOCK
5
1C
100
AcDbEntity
100
AcDbBlockBegin
2
*PAPER_SPACE
0
ENDBLK
5
1D
100
AcDbEntity
100
AcDbBlockEnd
0
ENDSEC
0
SECTION
2
ENTITIES
0
LWPOLYLINE
5
100
100
AcDbEntity
8
0
100
AcDbPolyline
90
56
70
1
43
0.0
10
20.393660937411422
20
92.017438072606907
10
29.106339062593108
20
126.86815057333359
42
-0.34415073140891017
10
38.807764064046424
20
134.44279432297023
10
85.000000000002288
20
134.4427943229702
42
-0.41421356237309503
10
95.000000000002274
20
124.4427943229702
10
95.000000000002302
20
120.0428181007908
42
-0.13275537729538775
10
92.276988021923387
20
109.96781512856325
42
0.27027406201120296
10
92.276988021923302
20
-31.082226482622879
42
-0.13275537729538789
10
95.00000000000216
20
-41.157229454850452
10
95.00000000000216
20
-45.557205677029806
42
-0.41421356237309503
10
85.000000000002146
20
-55.557205677029785
10
57.309939559626208
20
-55.557205677029771
42
-0.30548502346009015
10
48.041471336442044
20
-49.311602671997825
10
32.84770899624899
20
-11.802808682061716
42
0.30548502346009065
10
23.579240773064821
20
-5.5572056770297618
10
8.0000000000021725
20
-5.5572056770297449
42
-0.41421356237309503
10
7.5000000000021725
20
-5.0572056770297458
10
7.500000000002176
20
1.4427943229702622
42
0.41421356237309437
10
7.000000000002176
20
1.9427943229702604
10
-2.999999999997824
20
1.9427943229702649
42
0.41421356237309243
10
-3.4999999999978244
20
1.4427943229702711
10
-3.4999999999978253
20
-0.057205677029728008
42
0.41421356237309698
10
-2.9999999999978262
20
-0.55720567702973511
10
4.500000000002176
20
-0.557205677029734
42
-0.4142135623730947
10
5.0000000000021751
20
-1.0572056770297333
10
5.0000000000021743
20
-5.0572056770297369
42
-0.41421356237309664
10
4.5000000000021734
20
-5.5572056770297351
10
-23.579240773060469
20
-5.5572056770297262
42
0.3054850234600906
10
-32.847708996244641
20
-11.802808682061663
10
-48.041471336437773
20
-49.311602671997775
42
-0.30548502346009015
10
-57.309939559621952
20
-55.5572056770297
10
-84.999999999997854
20
-55.557205677029685
42
-0.41421356237309503
10
-94.99999999999784
20
-45.557205677029664
10
-94.999999999997883
20
-41.157229454850238
42
-0.13275537729538811
10
-92.276988021918967
20
-31.082226482622634
42
0.27027406201120263
10
-92.276988021918868
20
109.9678151285633
42
-0.13275537729538775
10
-94.999999999997726
20
120.04281810079087
10
-94.999999999997726
20
124.44279432297034
42
-0.41421356237309503
10
-84.999999999997712
20
134.44279432297031
10
-66.807764064041862
20
134.44279432297031
42
-0.34415073140891078
10
-57.10633906258856
20
126.86815057333364
10
-48.393660937406928
20
92.017438072606978
42
0.34415073140891089
10
-38.692235935953605
20
84.4427943229703
10
4.5000000000022382
20
84.442794322970258
42
-0.41421356237309503
10
5.0000000000022373
20
83.942794322970258
10
5.0000000000022329
20
79.942794322970229
42
-0.41421356237309503
10
4.5000000000022347
20
79.442794322970229
10
-2.999999999997768
20
79.442794322970229
42
0.41421356237309015
10
-3.4999999999977689
20
78.942794322970229
10
-3.4999999999977698
20
77.442794322970229
42
0.41421356237310025
10
-2.9999999999977698
20
76.942794322970229
10
7.0000000000022302
20
76.942794322970229
42
0.4142135623730957
10
7.5000000000022311
20
77.442794322970215
10
7.5000000000022293
20
83.942794322970258
42
-0.41421356237309503
10
8.0000000000022364
20
84.442794322970258
10
10.692235935958097
20
84.442794322970258
42
0.34415073140891028
0
CIRCLE
5
101
100
AcDbEntity
8
0
100
AcDbCircle
10
-68.122037000003374
20
41.841429483366717
30
3.8147010460936097e-06
40
2.3500000000000121
210
-6.5850103148080796e-15
220
-1.31280167555664e-21
230
-1
0
CIRCLE
5
102
100
AcDbEntity
8
0
100
AcDbCircle
10
-68.122037000003218
20
21.84142948336661
30
3.814700444630287e-06
40
2.3500000000000032
210
-6.5850103148080796e-15
220
-1.31280167555664e-21
230
-1
0
CIRCLE
5
103
100
AcDbEntity
8
0
100
AcDbCircle
10
19.899999999997817
20
27.442794322970268
30
3.8147009206147689e-06
40
2.5999999999999956
210
7.6327832942829789e-17
220
-1.31280167555664e-21
230
-1
0
CIRCLE
5
104
100
AcDbEntity
8
0
100
AcDbCircle
10
19.89999999999781
20
47.442794322970272
30
3.8147009607629372e-06
40
2.5499999999999989
210
7.9797279895257324e-17
220
-1.31280167555664e-21
230
-1
0
CIRCLE
5
105
100
AcDbEntity
8
0
100
AcDbCircle
10
19.899999999997846
20
7.4427943229702942
30
3.8147009675080858e-06
40
2.5499999999999989
210
7.9797279895257324e-17
220
-1.31280167555664e-21
230
-1
0
CIRCLE
5
106
100
AcDbEntity
8
0
100
AcDbCircle
10
10.023407674448633
20
17.642794541394817
30
3.8147009860680439e-06
40
2.0000000000000009
210
8.3266726847567503e-17
220
-1.31280167555664e-21
230
-1
0
CIRCLE
5
107
100
AcDbEntity
8
0
100
AcDbCircle
10
-9.9765923255513709
20
17.642794541394807
30
3.8147009888436015e-06
40
1.9999999999999996
210
8.326672684756754e-17
220
-1.31280167555664e-21
230
-1
0
CIRCLE
5
108
100
AcDbEntity
8
0
100
AcDbCircle
10
10.023407674448633
20
37.642794541394807
30
3.8147009640437219e-06
40
1.9999999999999973
210
8.3266726847566665e-17
220
-1.31280167555664e-21
230
-1
0
CIRCLE
5
109
100
AcDbEntity
8
0
100
AcDbCircle
10
-9.9765923255513709
20
37.642794541394807
30
3.8147009668192795e-06
40
1.9999999999999996
210
8.326672684756754e-17
220
-1.31280167555664e-21
230
-1
0
CIRCLE
5
110
100
AcDbEntity
8
0
100
AcDbCircle
10
-85.00000000000216
20
-45.557205677029785
30
3.8147009764282923e-06
40
2.1000000000000045
210
7.0918595284624172e-28
220
-1.31280167555664e-21
230
-1
0
CIRCLE
5
111
100
AcDbEntity
8
0
100
AcDbCircle
10
84.99999999999784
20
-45.557205677029685
30
3.814700952836053e-06
40
2.1000000000000045
210
7.0918595284624172e-28
220
-1.31280167555664e-21
230
-1
0
CIRCLE
5
112
100
AcDbEntity
8
0
100
AcDbCircle
10
84.999999999997726
20
124.44279432297031
30
3.8147009504768291e-06
40
2.1000000000000045
210
7.0918595284624172e-28
220
-1.31280167555664e-21
230
-1
0
CIRCLE
5
113
100
AcDbEntity
8
0
100
AcDbCircle
10
-85.000000000002274
20
124.44279432297022
30
3.8147009740690684e-06
40
2.1000000000000045
210
7.0918595284624172e-28
220
-1.31280167555664e-21
230
-1
0
CIRCLE
5
114
100
AcDbEntity
8
0
100
AcDbCircle
10
-20.100000000002218
20
47.442794322970244
30
3.8147009661309737e-06
40
3.5999999999999979
210
7.0918595284624172e-28
220
-1.31280167555664e-21
230
-1
0
CIRCLE
5
115
100
AcDbEntity
8
0
100
AcDbCircle
10
-20.100000000002186
20
7.4427943229702453
30
3.8147009666860861e-06
40
3.5999999999999992
210
7.0918595284624172e-28
220
-1.31280167555664e-21
230
-1
0
LINE
5
116
100
AcDbEntity
8
0
100
AcDbLine
10
68.122037000003218
20
21.84142948336661
30
-3.8147008932146321e-06
11
68.122037000003218
21
24.191429483366615
31
-3.8147008932146346e-06
0
LINE
5
117
100
AcDbEntity
8
0
100
AcDbLine
10
68.122037000003218
20
19.491429483366609
30
-3.8147008932146287e-06
11
68.122037000003218
21
21.84142948336661
31
-3.8147008932146321e-06
0
LINE
5
118
100
AcDbEntity
8
0
100
AcDbLine
10
65.772037000003209
20
21.84142948336661
30
-3.8147008777398576e-06
11
70.472037000003212
21
21.84142948336661
31
-3.8147009086894065e-06
0
LINE
5
119
100
AcDbEntity
8
0
100
AcDbLine
10
68.122037000003374
20
41.841429483366717
30
-3.8147014946779811e-06
11
68.122037000003374
21
39.491429483366709
31
-3.8147014946779785e-06
0
LINE
5
120
100
AcDbEntity
8
0
100
AcDbLine
10
68.122037000003374
20
41.841429483366717
30
-3.8147014946779811e-06
11
68.122037000003374
21
44.191429483366733
31
-3.8147014946779844e-06
0
LINE
5
121
100
AcDbEntity
8
0
100
AcDbLine
10
65.772037000003365
20
41.841429483366717
30
-3.8147014792032075e-06
11
70.472019632793575
21
41.850464171213133
31
-3.8147015101526411e-06
0
LINE
5
122
100
AcDbEntity
8
0
100
AcDbLine
10
9.9780655662008026
20
15.642795084004387
30
-3.8147009880127807e-06
11
9.9780655662008026
21
19.64279399878523
31
-3.8147009880127867e-06
0
LINE
5
123
100
AcDbEntity
8
0
100
AcDbLine
10
7.9765923255513718
20
17.642794541394807
30
-3.8147009881794404e-06
11
11.976592325551373
21
17.642794541394807
31
-3.8147009878463726e-06
0
LINE
5
124
100
AcDbEntity
8
0
100
AcDbLine
10
9.9765923255513709
20
37.642794541394807
30
-3.8147009659886112e-06
11
9.9765923255513709
21
35.642794541394807
31
-3.8147009659886087e-06
0
LINE
5
125
100
AcDbEntity
8
0
100
AcDbLine
10
9.9765923255513709
20
39.642794541394807
30
-3.8147009659886137e-06
11
9.9765923255513709
21
37.642794541394807
31
-3.8147009659886112e-06
0
LINE
5
126
100
AcDbEntity
8
0
100
AcDbLine
10
11.976592325551373
20
37.642794541394807
30
-3.8147009658220778e-06
11
7.9765923255513718
21
37.642794541394807
31
-3.8147009661551447e-06
0
LINE
5
127
100
AcDbEntity
8
0
100
AcDbLine
10
-10.010117585153955
20
39.642750384288973
30
-3.8147009648772845e-06
11
-10.010117585153955
21
35.64283869850064
31
-3.8147009648772786e-06
0
LINE
5
128
100
AcDbEntity
8
0
100
AcDbLine
10
-12.023407674448629
20
37.642794541394807
30
-3.8147009650449216e-06
11
-8.0234076744486345
21
37.642794541394807
31
-3.8147009647118547e-06
0
LINE
5
129
100
AcDbEntity
8
0
100
AcDbLine
10
-10.023407674448633
20
17.642794541394817
30
-3.8147009869026839e-06
11
-10.023407674448633
21
19.642794541394821
31
-3.8147009869026865e-06
0
LINE
5
130
100
AcDbEntity
8
0
100
AcDbLine
10
-12.023407674448631
20
17.642794541394817
30
-3.8147009870692174e-06
11
-8.0234076744486309
21
17.642794541394817
31
-3.8147009867361496e-06
0
LINE
5
131
100
AcDbEntity
8
0
100
AcDbLine
10
-8.0234076744486309
20
17.642794541394817
30
-3.8147009867361496e-06
11
-10.023407674448633
21
17.642794541394817
31
-3.8147009869026839e-06
0
LINE
5
132
100
AcDbEntity
8
0
100
AcDbLine
10
-10.023407674448633
20
15.642794541394816
30
-3.8147009869026805e-06
11
-10.023407674448633
21
17.642794541394817
31
-3.8147009869026839e-06
0
ENDSEC
0
SECTION
2
OBJECTS
0
DICTIONARY
5
C
100
AcDbDictionary
3
ACAD_GROUP
350
D
3
ACAD_MLINESTYLE
350
17
0
DICTIONARY
5
D
100
AcDbDictionary
0
DICTIONARY
5
1A
330
C
100
AcDbDictionary
0
DICTIONARY
5
17
100
AcDbDictionary
0
ENDSEC
0
EOF
